<svg width="79" height="57" viewBox="0 0 79 57" fill="none" xmlns="http://www.w3.org/2000/svg">
<path fill-rule="evenodd" clip-rule="evenodd" d="M40.2638 0.0719953C34.7283 0.492703 29.6122 2.97133 25.7965 7.08126C24.5306 8.44488 23.0482 10.5445 22.2933 12.0438C22.0431 12.5407 21.7872 12.9463 21.7247 12.9453C21.662 12.9443 21.2277 12.8368 20.7594 12.7064C19.6319 12.3926 17.2387 12.3936 15.8848 12.7084C11.9428 13.6248 8.58726 16.9888 7.67318 20.9407C7.3591 22.298 7.35817 24.6972 7.67117 25.8275C7.8012 26.297 7.90847 26.7625 7.9094 26.8622C7.91048 26.9616 7.37148 27.4244 6.71158 27.8904C2.50095 30.8641 0.00903323 35.6295 5.50118e-05 40.725C-0.00366011 42.8286 0.180239 44.1171 0.721099 45.7782C1.6652 48.6775 3.57617 51.4702 5.89983 53.3463C7.4026 54.5595 10.0023 55.9075 11.7725 56.3913C13.9985 56.9998 15.9717 57.0412 39.7994 56.9786C64.7378 56.9129 63.2641 56.9668 66.2697 56.0099C72.7343 53.9517 77.7604 48.0445 78.8127 41.2685C79.198 38.7874 78.9763 35.499 78.2627 33.109C76.4956 27.1901 71.6387 22.3503 65.7485 20.6391C64.9945 20.4201 64.2887 20.2408 64.1804 20.2408C64.0564 20.2408 63.9432 19.9105 63.875 19.3485C63.123 13.1641 59.4698 7.27199 54.1821 3.71529C51.2886 1.76911 47.5598 0.41418 44.3659 0.148192C42.241 -0.0285642 41.7158 -0.0383416 40.2638 0.0719953ZM33.7136 22.4209C33.9532 22.5103 35.6128 24.0466 37.4015 25.835L40.6536 29.0866L43.7481 25.972C45.4501 24.2591 47.1012 22.7226 47.417 22.5579C48.094 22.2047 49.333 22.1625 50.0621 22.4679C50.7237 22.7451 51.5075 23.6583 51.7095 24.3879C52.1604 26.0158 51.8459 26.5322 48.1136 30.291L44.9915 33.4352L48.1947 36.6536C52.1247 40.6021 52.3686 41.065 51.4716 42.8697C50.8155 44.1897 49.4145 44.8277 47.9981 44.4512C47.3965 44.2914 46.8811 43.8429 44.0178 40.9882L40.7284 37.709L37.5931 40.8385C34.2953 44.1304 33.8537 44.4498 32.6001 44.4498C31.0401 44.4498 29.5807 43.0444 29.5837 41.545C29.5862 40.2986 29.8105 39.9885 33.1569 36.6084L36.3877 33.3449L33.2017 30.1682C31.4495 28.421 29.9184 26.7667 29.7994 26.492C29.481 25.7577 29.5266 24.5288 29.8997 23.796C30.3582 22.8948 31.421 22.2583 32.4668 22.2583C32.9128 22.2583 33.4739 22.3315 33.7136 22.4209Z" fill="#FF5F5F"/>
</svg>
