<svg width="57" height="57" viewBox="0 0 57 57" fill="none" xmlns="http://www.w3.org/2000/svg">
<path d="M50.5 6.5L40.5 16.5" stroke="#FF5F5F" stroke-width="2" stroke-linecap="round" stroke-linejoin="round"/>
<path d="M40.5 6.5L50.5 16.5" stroke="#FF5F5F" stroke-width="2" stroke-linecap="round" stroke-linejoin="round"/>
<path fill-rule="evenodd" clip-rule="evenodd" d="M44.6896 0.0471994C44.5906 0.0666121 44.1049 0.147618 43.6102 0.227306C42.453 0.413764 41.02 0.935511 39.997 1.5427C38.9598 2.15839 38.8129 2.31321 38.8129 2.79014C38.8129 3.51992 39.5718 3.82141 40.2336 3.35455C40.8772 2.90039 42.3432 2.23748 43.2341 1.9977C44.5164 1.65258 46.7813 1.65258 48.0633 1.99758C50.0039 2.5198 51.9254 3.7718 53.1794 5.33105C55.4388 8.14062 55.9257 12.171 54.3997 15.4296C53.1238 18.1537 50.39 20.2961 47.5159 20.824C46.6023 20.9918 44.6958 20.9918 43.7822 20.824C42.1049 20.5159 40.3423 19.596 39.0195 18.3386C37.0549 16.4708 36.038 14.122 36.0277 11.4281C36.0215 9.77189 36.2661 8.67543 36.9771 7.17406C37.2736 6.54794 37.5177 5.91259 37.5199 5.76209C37.5298 5.03351 36.5278 4.74256 36.0591 5.338C35.4213 6.14806 34.6761 8.13367 34.4639 9.58759L34.3266 10.5293H32.6806C30.3515 10.5293 30.5375 10.1379 30.5375 15.0392V18.9176H28.8194C27.1786 18.9176 27.0896 18.93 26.8405 19.1948C26.4989 19.5583 26.5104 19.9377 26.8742 20.301C27.1654 20.5921 27.1921 20.5952 29.3766 20.5952C31.4288 20.5952 31.6069 20.5777 31.9006 20.3468L32.2166 20.0985V16.1527V12.207H33.2805H34.3444L34.428 12.9456C34.5914 14.3877 35.319 16.2648 36.2748 17.7097C37.9299 20.2116 40.8373 22.0607 43.8642 22.5366L44.8095 22.6853V29.3655V36.0458L39.8356 36.0796L34.8616 36.1134L34.5885 36.3864L34.3154 36.6593V42.5982V48.5372L34.5986 48.7662C34.9344 49.0379 35.3206 49.0599 35.6417 48.8252C35.8647 48.6625 35.8771 48.425 35.9345 43.2231L35.9945 37.791L41.0316 37.7618C45.998 37.733 46.0718 37.7291 46.2787 37.479C46.4735 37.2435 46.4886 36.702 46.4886 29.9442V22.6632L47.1937 22.5836C48.2139 22.4683 49.402 22.1029 50.5576 21.5493C55.806 19.035 58.2999 12.97 56.3264 7.52037C54.9065 3.59973 51.4622 0.77985 47.3335 0.158044C46.2978 0.00202307 45.1633 -0.0455502 44.6896 0.0471994ZM19.4373 9.68561C19.1124 9.81707 18.0516 10.9842 17.4425 11.8804C16.7062 12.9638 15.8146 14.9237 15.4591 16.2409C15.1659 17.3271 15.141 17.6031 15.1413 19.7564C15.1417 21.7571 15.1778 22.2229 15.3922 22.9955C15.998 25.1784 16.9128 26.9875 18.2423 28.6315L18.911 29.4585L18.8776 31.0348L18.8441 32.6111L18.1878 31.606C17.8268 31.0534 17.0443 30.1132 16.4488 29.5168C14.2185 27.2831 11.4852 25.9212 8.40997 25.5115C6.84089 25.3025 6.21449 25.3689 5.91118 25.7764C5.67803 26.0895 5.67335 26.1654 5.80827 27.454C6.23332 31.5111 8.20201 35.0112 11.4083 37.4097C13.2154 38.7615 15.9255 39.8398 18.0945 40.0697L18.9041 40.1557V43.2519V46.3481L18.5143 46.4076C18.3 46.4405 17.6388 46.4994 17.0451 46.5388C15.5468 46.6383 13.2352 47.1198 11.5319 47.6874C7.82074 48.9241 4.59312 51.0274 1.45244 54.2559C0.155971 55.5885 -0.0820952 55.9369 0.0215265 56.3492C0.113995 56.7177 0.269667 56.8583 0.705982 56.9677C1.00869 57.0436 1.16856 56.9173 2.62934 55.4494C4.37844 53.6919 5.37136 52.85 6.89894 51.8292C11.1007 49.0213 16.2877 47.7233 21.6026 48.1496C27.7521 48.6428 32.5651 50.9969 37.0234 55.6918C38.3689 57.1087 38.5513 57.2041 39.0965 56.7756C39.6443 56.3451 39.5328 55.9638 38.5304 54.8386C35.1396 51.0326 30.6678 48.2679 26.1 47.1535C24.6029 46.7882 22.5515 46.4788 21.6269 46.4788C20.4989 46.4788 20.5831 46.7398 20.5831 43.2423V40.1512L21.3327 40.0661C22.3092 39.9553 24.0988 39.5023 24.8702 39.1708C25.5928 38.8602 25.8416 38.4441 25.6094 37.9347C25.3678 37.4052 24.9724 37.3649 23.8213 37.7528C22.7476 38.1146 20.7426 38.5295 20.6269 38.4139C20.5895 38.3765 20.6244 37.9515 20.7046 37.4693C21.6131 32.0081 25.9193 27.854 31.4081 27.1442L31.9789 27.0704L31.9054 27.5775C31.807 28.2566 31.5357 29.5229 31.3526 30.1588C31.2276 30.5925 31.2327 30.7267 31.3841 30.9977C31.5922 31.3697 32.2523 31.4962 32.6125 31.2328C33.0426 30.9182 33.6558 28.1823 33.6558 26.5781C33.6558 26.0117 33.6037 25.8158 33.3988 25.611C33.1584 25.3708 33.0631 25.3591 31.9296 25.4305C28.5487 25.6436 25.3518 27.0922 22.9614 29.4941C22.4523 30.0057 21.7089 30.9125 21.3094 31.5091L20.5831 32.594V30.9653V29.3365L21.2128 28.5733C24.6695 24.384 25.3472 18.3304 22.9021 13.4831C22.1816 12.0544 20.6906 10.0707 20.0854 9.73534C19.7587 9.55439 19.7611 9.55451 19.4373 9.68561ZM20.6375 12.9746C22.587 15.9091 23.1632 19.4468 22.2594 22.9319C21.9514 24.1199 21.0245 26.0433 20.2828 27.0336L19.7238 27.7801L19.4498 27.453C18.9006 26.7977 18.0389 25.3593 17.6918 24.5184C17.0865 23.0517 16.8381 21.8748 16.7754 20.1758C16.6688 17.293 17.3686 14.9291 19.0216 12.5888C19.747 11.5618 19.6899 11.5482 20.6375 12.9746ZM8.64984 27.2509C9.50496 27.3623 11.0291 27.8632 12.008 28.3548C14.957 29.8354 17.0828 32.2503 18.1661 35.3503C18.5329 36.4 18.8887 38.2657 18.7489 38.4055C18.6089 38.5452 16.4727 38.083 15.4026 37.6814C13.3113 36.8965 11.2671 35.3628 9.87939 33.537C8.72288 32.0154 7.73571 29.5859 7.55401 27.8138C7.47654 27.0582 7.47798 27.0533 7.76306 27.1128C7.92101 27.1459 8.32002 27.208 8.64984 27.2509ZM28.6662 34.5855C27.5754 35.7299 27.441 36.0808 27.9217 36.5281C28.4707 37.0393 29.0332 36.7758 30.1163 35.5003C30.861 34.6233 30.9514 34.2215 30.4999 33.7975C30.0102 33.338 29.7479 33.4506 28.6662 34.5855Z" fill="#FF5F5F"/>
</svg>
