<svg width="80" height="80" viewBox="0 0 80 80" fill="none" xmlns="http://www.w3.org/2000/svg">
<path d="M43.3334 40C43.3334 38.159 41.841 36.6667 40.0001 36.6667C38.1591 36.6667 36.6667 38.159 36.6667 40C36.6667 41.8409 38.1591 43.3333 40.0001 43.3333C41.841 43.3333 43.3334 41.8409 43.3334 40Z" stroke="#303437" stroke-width="7" stroke-linecap="round" stroke-linejoin="round"/>
<path d="M19.9999 40C19.9999 38.159 18.5075 36.6667 16.6666 36.6667C14.8256 36.6667 13.3333 38.159 13.3333 40C13.3333 41.8409 14.8256 43.3333 16.6666 43.3333C18.5075 43.3333 19.9999 41.8409 19.9999 40Z" stroke="#303437" stroke-width="7" stroke-linecap="round" stroke-linejoin="round"/>
<path d="M66.6667 40C66.6667 38.159 65.1743 36.6667 63.3333 36.6667C61.4924 36.6667 60 38.159 60 40C60 41.8409 61.4924 43.3333 63.3333 43.3333C65.1743 43.3333 66.6667 41.8409 66.6667 40Z" stroke="#303437" stroke-width="7" stroke-linecap="round" stroke-linejoin="round"/>
</svg>
