<svg width="80" height="80" viewBox="0 0 80 80" fill="none" xmlns="http://www.w3.org/2000/svg">
<path d="M43.3332 40C43.3332 38.159 41.8408 36.6667 39.9998 36.6667C38.1589 36.6667 36.6665 38.159 36.6665 40C36.6665 41.8409 38.1589 43.3333 39.9998 43.3333C41.8408 43.3333 43.3332 41.8409 43.3332 40Z" fill="#303437" stroke="#303437" stroke-width="7" stroke-linecap="round" stroke-linejoin="round"/>
<path d="M20.0002 40C20.0002 38.159 18.5078 36.6667 16.6668 36.6667C14.8259 36.6667 13.3335 38.159 13.3335 40C13.3335 41.8409 14.8259 43.3333 16.6668 43.3333C18.5078 43.3333 20.0002 41.8409 20.0002 40Z" fill="#303437" stroke="#303437" stroke-width="7" stroke-linecap="round" stroke-linejoin="round"/>
<path d="M66.6667 40C66.6667 38.159 65.1743 36.6667 63.3333 36.6667C61.4924 36.6667 60 38.159 60 40C60 41.8409 61.4924 43.3333 63.3333 43.3333C65.1743 43.3333 66.6667 41.8409 66.6667 40Z" fill="#303437" stroke="#303437" stroke-width="7" stroke-linecap="round" stroke-linejoin="round"/>
</svg>
