<svg width="42" height="42" viewBox="0 0 42 42" fill="none" xmlns="http://www.w3.org/2000/svg">
<path fill-rule="evenodd" clip-rule="evenodd" d="M12.2542 28.3472C10.0804 28.9105 8.87215 29.4797 7.97717 30.3623C7.30993 31.0204 7.1229 31.4336 7.1229 32.25C7.1229 34.6706 11.0445 36.3666 17.8526 36.8903C19.4726 37.0149 24.2959 36.9366 25.6778 36.7633C31.7748 35.9983 34.8731 34.4776 34.8731 32.25C34.8731 31.4377 34.6848 31.0211 34.0181 30.3588C33.3879 29.7327 32.6329 29.2908 31.4482 28.8547C31.0359 28.7028 30.23 28.4996 29.5264 28.3341C28.6567 28.1296 27.7135 27.8142 26.903 28.1901C26.7052 28.2819 26.5275 28.4191 26.4071 28.6223C26.2235 28.9324 26.2009 29.2072 26.2582 29.4393C26.4333 30.1484 27.3002 30.3482 28.0177 30.4852V30.4852C29.876 30.8397 31.8478 31.559 32.2855 32.0421C32.4465 32.2198 32.4465 32.2204 32.2438 32.3809C31.0495 33.3261 27.9753 34.1061 24.2 34.4217C22.7737 34.5409 19.2223 34.5409 17.7961 34.4217C14.0207 34.1061 10.9465 33.3261 9.75228 32.3809C9.5563 32.2258 9.55425 32.2144 9.6953 32.0588C9.88282 31.8519 10.6532 31.4421 11.3398 31.184C11.9499 30.9547 13.5524 30.5411 14.3478 30.4076C15.3529 30.239 15.6843 29.2714 15.3593 28.6223C15.2983 28.5006 15.2223 28.4018 15.1365 28.3217C14.4074 27.6412 13.2197 28.097 12.2542 28.3472V28.3472ZM3.37276 29.6294C2.11144 30.2857 0.918758 31.412 0.421635 32.4165C-0.137311 33.546 -0.140513 34.6789 0.411947 35.8097C0.740927 36.4829 1.88673 37.6601 2.77154 38.234C5.6147 40.0778 10.6166 41.3949 16.6877 41.8982C18.3324 42.0345 23.6303 42.0338 25.3083 41.8969C31.3584 41.4035 36.3722 40.0837 39.2245 38.234C40.1093 37.6601 41.2551 36.4829 41.5841 35.8097C42.3775 34.1858 42.0306 32.5462 40.5872 31.0984C39.9003 30.4094 38.881 29.6857 38.2686 29.4521C37.7788 29.2653 37.3823 29.3546 36.9981 29.7382C36.6087 30.1272 36.5241 30.517 36.7188 31.026C36.8438 31.3527 36.9535 31.4558 37.672 31.9215C38.9122 32.7251 39.5493 33.4622 39.5493 34.0933C39.5493 34.9391 38.4045 36.0124 36.5762 36.881C31.3085 39.3835 21.4537 40.2727 13.0479 39.0039C7.72003 38.1997 3.52235 36.4583 2.61086 34.6742C2.17121 33.8134 2.68952 32.9807 4.32399 31.9215C5.04254 31.4558 5.15223 31.3527 5.27718 31.026C5.5216 30.3869 5.23384 29.7123 4.60478 29.4498C4.19821 29.2802 3.98401 29.3114 3.37276 29.6294Z" fill="black"/>
</svg>
