<svg width="42" height="42" viewBox="0 0 42 42" fill="none" xmlns="http://www.w3.org/2000/svg">
<path fill-rule="evenodd" clip-rule="evenodd" d="M19.5788 0.0528805C18.2878 0.232858 16.8736 0.664064 15.7963 1.20597C14.37 1.92349 12.8464 3.21851 11.8132 4.59143C9.99709 7.00469 9.16326 10.3545 9.7213 12.9951C10.3123 15.791 12.3629 20.3161 15.6169 26.0048C16.0902 26.8321 17.9463 29.9479 17.9288 29.9655L18.2897 30.5239C19.039 31.6834 20.2364 32.2434 21.4825 32.0173C22.4553 31.8407 23.1257 31.3746 23.6874 30.4844L24.0283 29.9442C24.0083 29.9241 25.8782 26.7957 26.3742 25.9229C29.2167 20.9214 31.1711 16.772 31.9286 14.1296C32.3556 12.6407 32.4157 12.1809 32.362 10.8211C32.2446 7.85502 30.999 5.16111 28.7782 3.06984C27.2455 1.62665 25.3742 0.652969 23.2897 0.214285C22.3757 0.0218981 20.4128 -0.0634884 19.5788 0.0528805ZM29.6855 9.22227C28.8034 5.89623 26.1549 3.3509 22.8246 2.62845C22.1229 2.47625 20.3744 2.41543 19.7088 2.52021C15.8684 3.12449 12.8641 5.99912 12.1533 9.7498C11.976 10.6858 11.989 11.9348 12.1848 12.7485C12.7927 15.2767 14.8316 19.6642 17.8749 24.9935C19.0542 27.0586 20.4075 29.2896 20.5707 29.4373C20.7755 29.6229 21.1735 29.6229 21.3784 29.4373C21.4662 29.3578 21.9612 28.5843 22.4784 27.7184C26.4983 20.9884 29.1562 15.4947 29.8053 12.5739C29.9894 11.7457 29.9325 10.1535 29.6855 9.22227Z" fill="black"/>
<path fill-rule="evenodd" clip-rule="evenodd" d="M20.0043 5.79593C18.7801 6.0598 17.7507 6.71045 17.0128 7.68679C16.7022 8.09769 16.2761 8.95863 16.1668 9.39621C15.9462 10.2794 15.9444 11.1088 16.1615 11.9702C16.3134 12.5729 16.4846 12.9578 16.8373 13.4893C17.5011 14.4893 18.4559 15.1954 19.6236 15.5499C20.0091 15.6669 20.1888 15.6901 20.7441 15.6946C20.8592 15.6955 20.9551 15.6963 21.0346 15.6969C21.1586 15.6979 21.5099 15.6167 21.6068 15.5393C21.9935 15.2307 22.1369 14.7394 21.9624 14.3201C21.781 13.8836 21.4855 13.7113 20.7886 13.6353C19.9591 13.5449 19.3294 13.2327 18.8212 12.6598C17.4611 11.1266 18.0544 8.73306 19.9846 7.96679C20.6208 7.71407 21.3746 7.71407 22.0108 7.96679C23.0925 8.39623 23.8141 9.36054 23.9036 10.4961C23.9596 11.2058 24.2055 11.5809 24.699 11.7095C25.0817 11.8092 25.3921 11.7277 25.6765 11.4529C25.9893 11.1506 26.0459 10.9168 25.9696 10.2414C25.8876 9.51372 25.7885 9.16103 25.4961 8.55571C24.7767 7.06645 23.4984 6.08191 21.8848 5.77434C21.325 5.66765 20.5587 5.67648 20.0043 5.79593Z" fill="black"/>
</svg>
