<svg width="93" height="42" viewBox="0 0 93 42" fill="none" xmlns="http://www.w3.org/2000/svg">
<path d="M0 31.5471C0 30.8986 0.52571 30.3729 1.17421 30.3729H18.2585H20.4976C21.1461 30.3729 21.6718 30.8986 21.6718 31.5471V31.5471C21.6718 32.1956 21.1461 32.7213 20.4976 32.7213H1.17421C0.525712 32.7213 0 32.1956 0 31.5471V31.5471Z" fill="black"/>
<path d="M16.332 6.65406C16.332 6.00557 16.8577 5.47986 17.5062 5.47986H34.5905H36.8296C37.4781 5.47986 38.0038 6.00557 38.0038 6.65406V6.65406C38.0038 7.30256 37.4781 7.82827 36.8296 7.82827H17.5062C16.8577 7.82827 16.332 7.30256 16.332 6.65406V6.65406Z" fill="black"/>
<path d="M27.7966 2.27015C27.7966 1.62166 28.3223 1.09595 28.9708 1.09595H46.0551H48.2942C48.9427 1.09595 49.4684 1.62166 49.4684 2.27015V2.27015C49.4684 2.91865 48.9427 3.44436 48.2942 3.44436H28.9708C28.3223 3.44436 27.7966 2.91865 27.7966 2.27015V2.27015Z" fill="black"/>
<path d="M2.98401 27.6329C2.98401 26.9844 3.50972 26.4587 4.15821 26.4587H22.6979H25.209C25.8575 26.4587 26.3833 26.9844 26.3833 27.6329V27.6329C26.3833 28.2814 25.8575 28.8072 25.209 28.8072H4.15822C3.50972 28.8072 2.98401 28.2814 2.98401 27.6329V27.6329Z" fill="black"/>
</svg>
