<svg width="60" height="57" viewBox="0 0 60 57" fill="none" xmlns="http://www.w3.org/2000/svg">
<path d="M41 25L19 47" stroke="#FF5F5F" stroke-width="4" stroke-linecap="round" stroke-linejoin="round"/>
<path d="M19 25L41 47" stroke="#FF5F5F" stroke-width="4" stroke-linecap="round" stroke-linejoin="round"/>
<path fill-rule="evenodd" clip-rule="evenodd" d="M29.2246 0.253818C28.9508 0.465494 25.251 3.66294 19.0108 9.08077L18.2782 9.71685V9.1296C18.2782 8.54376 18.2793 8.542 18.7659 8.38523C19.6344 8.10545 19.7434 7.8273 19.7434 5.89173C19.7434 4.37227 19.7203 4.18407 19.4977 3.88513C19.0421 3.27324 18.8094 3.25127 13.1854 3.28796C7.59148 3.32452 7.75629 3.30548 7.29035 3.96843C7.07502 4.27484 6.95194 6.04862 7.0769 7.04544C7.18251 7.88782 7.60754 8.35346 8.37532 8.46817L8.90069 8.54667V13.1981V17.8494L4.5839 21.5925C2.20964 23.6512 0.205207 25.471 0.129601 25.6365C-0.0538453 26.0376 -0.0436473 26.3361 0.167228 26.7426C0.526854 27.4357 0.575969 27.4448 3.94002 27.4448H7.01524L7.04947 32.1728C7.08252 36.7233 7.0926 36.9095 7.31825 37.1288C7.69065 37.4908 8.19293 37.4957 8.54904 37.1408C8.77656 36.914 8.78348 36.7514 8.78348 31.6122V26.3174L8.51446 26.0654C8.25576 25.8233 8.13256 25.8124 5.32097 25.7823L2.39649 25.7509L6.41238 22.2644C8.62125 20.3467 10.4802 18.6811 10.5436 18.563C10.614 18.432 10.659 16.4322 10.659 13.4343V8.52016H13.5894H16.5199V10.2193C16.5199 11.8676 16.5284 11.9271 16.8077 12.2052C16.9659 12.3629 17.2216 12.492 17.3758 12.492C17.6965 12.492 17.4392 12.7058 24.664 6.43646C27.5636 3.92018 29.9638 1.86148 29.9976 1.86148C30.0314 1.86148 32.5117 3.99074 35.5095 6.59311C38.5072 9.19549 41.0832 11.3576 41.2338 11.3979C41.6452 11.5078 42.1239 11.1041 42.1664 10.6113C42.196 10.2693 42.1226 10.1392 41.6389 9.67596C40.8639 8.93358 31.2007 0.576823 30.7439 0.253818C30.2653 -0.0846061 29.6623 -0.0846061 29.2246 0.253818ZM18.0437 5.89173V6.76787H13.4136H8.78348V5.89173V5.01559H13.4136H18.0437V5.89173ZM43.8851 12.662C43.5688 12.977 43.5311 13.2391 43.7479 13.6149C43.8262 13.7506 46.976 16.5367 50.7475 19.8063L57.6045 25.7509L54.6796 25.7823C51.8674 25.8124 51.7442 25.8233 51.4855 26.0654L51.2165 26.3174L51.2147 40.6365C51.2136 49.4569 51.1702 55.023 51.1017 55.1309C51.0036 55.2856 48.5308 55.3061 30 55.3061C11.4692 55.3061 8.99635 55.2856 8.89823 55.1309C8.8313 55.0254 8.78641 52.0484 8.78524 47.6456L8.78348 40.3357L8.51223 40.0816C8.16245 39.7541 7.60051 39.7504 7.30711 40.0735C7.09249 40.31 7.08381 40.6069 7.08381 47.7544C7.08381 51.8436 7.12413 55.3329 7.17337 55.5085C7.2975 55.9503 7.94185 56.6527 8.39689 56.8422C8.71057 56.9728 12.4375 57 29.9886 57C44.6912 57 51.3025 56.9619 51.5312 56.8757C51.9404 56.7217 52.4643 56.2365 52.7215 55.7734C52.8994 55.4532 52.919 54.2147 52.9482 41.4339L52.9803 27.4448H56.0577C59.4241 27.4448 59.4731 27.4357 59.8328 26.7426C60.0437 26.336 60.0538 26.0376 59.8703 25.6361C59.7583 25.3914 53.2627 19.6765 46.0921 13.5142C44.6471 12.2724 44.3796 12.169 43.8851 12.662Z" fill="#FF5F5F"/>
</svg>
