<svg width="60" height="57" viewBox="0 0 60 57" fill="none" xmlns="http://www.w3.org/2000/svg">
<path fill-rule="evenodd" clip-rule="evenodd" d="M29.2246 0.253818C28.9508 0.465494 25.251 3.66295 19.0108 9.08077L18.2782 9.71685V9.1296C18.2782 8.54376 18.2793 8.542 18.7659 8.38523C19.6344 8.10545 19.7434 7.8273 19.7434 5.89173C19.7434 4.37227 19.7203 4.18407 19.4977 3.88513C19.0421 3.27324 18.8094 3.25127 13.1854 3.28796C7.59148 3.32452 7.75629 3.30548 7.29035 3.96843C7.07502 4.27484 6.95194 6.04862 7.0769 7.04544C7.18251 7.88782 7.60754 8.35346 8.37532 8.46817L8.9007 8.54668V13.1981V17.8494L4.5839 21.5925C2.20964 23.6512 0.205207 25.471 0.129601 25.6365C-0.0538453 26.0376 -0.0436473 26.3361 0.167228 26.7426C0.526854 27.4357 0.575969 27.4448 3.94002 27.4448H7.01524L7.04947 32.1728C7.08252 36.7233 7.0926 36.9095 7.31825 37.1288C7.69065 37.4908 8.19293 37.4957 8.54904 37.1408C8.77656 36.914 8.78348 36.7514 8.78348 31.6122V26.3174L8.51446 26.0654C8.25576 25.8233 8.13256 25.8124 5.32097 25.7823L2.39649 25.7509L6.41238 22.2644C8.62125 20.3467 10.4802 18.6811 10.5436 18.563C10.614 18.432 10.659 16.4322 10.659 13.4343V8.52016H13.5894H16.5199V10.2193C16.5199 11.8676 16.5284 11.9271 16.8077 12.2052C16.9659 12.3629 17.2216 12.492 17.3758 12.492C17.6965 12.492 17.4392 12.7058 24.664 6.43646C27.5636 3.92018 29.9638 1.86148 29.9976 1.86148C30.0314 1.86148 32.5117 3.99074 35.5095 6.59311C38.5072 9.19549 41.0832 11.3576 41.2338 11.3979C41.6452 11.5078 42.1239 11.1041 42.1664 10.6113C42.196 10.2693 42.1226 10.1392 41.6389 9.67596C40.8639 8.93358 31.2007 0.576823 30.7439 0.253818C30.2653 -0.0846061 29.6623 -0.0846061 29.2246 0.253818ZM18.0437 5.89173V6.76787H13.4136H8.78348V5.89173V5.01559H13.4136H18.0437V5.89173ZM43.8851 12.662C43.5688 12.977 43.5311 13.2391 43.7479 13.6149C43.8262 13.7506 46.976 16.5367 50.7475 19.8063L57.6045 25.7509L54.6796 25.7823C51.8674 25.8124 51.7442 25.8233 51.4855 26.0654L51.2165 26.3174L51.2147 40.6365C51.2136 49.4569 51.1702 55.023 51.1017 55.1309C51.0036 55.2856 48.5308 55.3061 30 55.3061C11.4692 55.3061 8.99634 55.2856 8.89823 55.1309C8.8313 55.0254 8.78641 52.0484 8.78523 47.6456L8.78348 40.3357L8.51223 40.0816C8.16245 39.7541 7.60051 39.7504 7.30711 40.0735C7.09249 40.31 7.08381 40.6069 7.08381 47.7544C7.08381 51.8436 7.12413 55.3329 7.17337 55.5085C7.2975 55.9503 7.94185 56.6527 8.39689 56.8422C8.71057 56.9728 12.4375 57 29.9886 57C44.6912 57 51.3025 56.9619 51.5312 56.8757C51.9404 56.7217 52.4643 56.2365 52.7215 55.7734C52.8994 55.4532 52.919 54.2147 52.9482 41.4339L52.9803 27.4448H56.0577C59.4241 27.4448 59.4731 27.4357 59.8328 26.7426C60.0437 26.336 60.0538 26.0376 59.8703 25.6361C59.7583 25.3914 53.2627 19.6765 46.0921 13.5142C44.6471 12.2724 44.3796 12.169 43.8851 12.662ZM28.0073 21.9624C24.9498 22.2155 21.5324 23.3164 18.8643 24.9077C16.8175 26.1285 14.4398 28.1575 14.0434 29.0219C13.4845 30.2401 14.0181 31.7339 15.2305 32.3461C16.3885 32.9308 17.3834 32.7143 18.5849 31.6164C21.8738 28.6107 25.7015 27.0944 30 27.0944C34.2985 27.0944 38.1261 28.6107 41.4151 31.6164C42.02 32.1692 42.3779 32.3989 42.8448 32.5342C44.5245 33.0208 46.1815 31.7831 46.1735 30.0478C46.1698 29.2274 45.8471 28.6535 44.8717 27.7328C41.3295 24.3884 36.7487 22.3646 31.7957 21.9556C30.2458 21.8276 29.6216 21.8288 28.0073 21.9624ZM32.7805 23.7639C36.1608 24.2427 39.428 25.58 42.0149 27.5438C43.2178 28.4568 44.2869 29.4569 44.3972 29.7723C44.5201 30.1237 44.3876 30.5655 44.0923 30.789C43.6474 31.1259 43.295 30.9823 42.167 30.0047C38.2941 26.6476 33.4711 25.0322 28.584 25.455C24.4089 25.8162 21.0013 27.2584 17.833 30.0047C16.705 30.9823 16.3526 31.1259 15.9077 30.789C15.6124 30.5655 15.4799 30.1237 15.6028 29.7723C15.7131 29.4569 16.7822 28.4568 17.9851 27.5438C20.5283 25.6133 23.8333 24.248 27.1209 23.7695C28.5614 23.5599 31.3215 23.5571 32.7805 23.7639ZM27.4798 29.0283C24.464 29.5362 21.5922 30.9247 19.4281 32.9215C18.969 33.3451 18.4972 33.9026 18.3798 34.1604C17.6136 35.8411 18.9218 37.8488 20.7767 37.8391C21.4416 37.8356 22.1084 37.5123 22.8726 36.8226C24.1976 35.6267 25.6968 34.8177 27.413 34.3724C29.7195 33.774 32.4956 34.0556 34.5797 35.0997C35.6512 35.6366 36.2978 36.0738 37.1273 36.8226C37.8916 37.5123 38.5583 37.8356 39.2233 37.8391C41.0782 37.8488 42.3863 35.8411 41.6202 34.1604C41.1693 33.171 38.7619 31.3011 36.6695 30.3148C33.9434 29.0299 30.4087 28.5351 27.4798 29.0283ZM32.3031 30.7229C34.0345 30.9881 36.1827 31.817 37.6447 32.784C38.7214 33.4963 39.9468 34.5884 40.0726 34.9481C40.2133 35.3503 40.0705 35.7906 39.7425 35.9655C39.2579 36.2239 38.9135 36.1048 38.0519 35.3813C36.3942 33.9888 35.0522 33.271 33.1063 32.736C32.0457 32.4446 31.7499 32.4138 30 32.4138C28.25 32.4138 27.9543 32.4446 26.8937 32.736C24.9478 33.271 23.6057 33.9888 21.948 35.3813C21.0865 36.1048 20.7421 36.2239 20.2575 35.9655C19.6611 35.6474 19.761 34.8815 20.4816 34.2472C23.9073 31.2316 27.884 30.046 32.3031 30.7229ZM28.8278 35.7527C26.0256 36.0725 22.8095 38.0075 22.3687 39.6386C21.9344 41.2458 23.0255 42.8218 24.6663 42.9573C25.4076 43.0186 26.1087 42.7418 26.9239 42.066C27.6738 41.4444 28.2933 41.152 29.2218 40.9814C30.5903 40.7302 31.9139 41.1026 33.076 42.066C33.8913 42.7418 34.5924 43.0186 35.3337 42.9573C36.9745 42.8218 38.0655 41.2458 37.6313 39.6386C37.3013 38.4175 35.0646 36.7567 32.8677 36.1016C32.1723 35.8942 30.1955 35.5933 29.8242 35.6383C29.7597 35.6461 29.3113 35.6976 28.8278 35.7527ZM32.2271 37.6723C33.3459 38.008 34.545 38.6645 35.2947 39.3517C35.8961 39.9029 36.0172 40.0777 36.0172 40.3945C36.0172 40.8714 35.6637 41.2407 35.1946 41.254C34.9414 41.2612 34.6205 41.0943 34.0507 40.659C32.6379 39.5798 31.616 39.2157 30 39.2157C28.384 39.2157 27.3621 39.5798 25.9493 40.659C25.3795 41.0943 25.0585 41.2612 24.8053 41.254C24.3453 41.2409 23.9828 40.8707 23.9828 40.4138C23.9828 39.481 26.5006 37.8533 28.494 37.4976C29.3644 37.3422 31.4527 37.44 32.2271 37.6723ZM28.9624 42.8479C28.1912 43.1218 27.8245 43.3858 27.338 44.0177C26.322 45.3368 26.5381 47.3131 27.821 48.4387C29.1292 49.5863 30.9084 49.5732 32.2105 48.4065C33.0313 47.6711 33.3247 46.9342 33.2575 45.7769C33.1791 44.4272 32.5537 43.501 31.3685 42.9787C30.5591 42.6219 29.7257 42.5767 28.9624 42.8479ZM30.8206 44.5775C31.2184 44.8116 31.641 45.5234 31.641 45.9589C31.641 46.4412 31.2913 47.0726 30.8885 47.3174C30.6765 47.4462 30.3098 47.5369 30 47.5369C29.6902 47.5369 29.3235 47.4462 29.1115 47.3174C28.7087 47.0726 28.3589 46.4412 28.3589 45.9589C28.3589 45.5343 28.7737 44.8219 29.1598 44.5832C29.5641 44.3332 30.4009 44.3303 30.8206 44.5775Z" fill="#99E699"/>
</svg>
