<svg width="64" height="64" viewBox="0 0 64 64" fill="none" xmlns="http://www.w3.org/2000/svg">
<path fill-rule="evenodd" clip-rule="evenodd" d="M9.68633 0.182809C8.10865 0.474498 6.41371 1.16462 5.12367 2.04044C4.29351 2.60404 2.79971 4.08101 2.16981 4.96083C0.977022 6.627 0.179368 8.87542 0.0392385 10.9667C-0.0355142 12.0804 -0.0286389 12.1208 0.287247 12.437C0.713262 12.8635 1.39141 12.8809 1.79618 12.4757C2.03006 12.2414 2.09694 12.0017 2.16144 11.1644C2.54033 6.24547 6.23896 2.54298 11.1528 2.16369C11.9892 2.09912 12.2287 2.03218 12.4627 1.79805C12.8593 1.401 12.8499 0.713881 12.4421 0.305691C12.178 0.0412816 12.0255 0.000112205 11.3483 0.00974758C10.9155 0.0160043 10.1676 0.0938382 9.68633 0.182809ZM51.5752 0.287547C51.1492 0.714006 51.1318 1.39286 51.5367 1.79817C51.7723 2.03405 52.0105 2.09937 52.8805 2.1667C57.7677 2.54485 61.4595 6.25347 61.8378 11.1644C61.9023 12.0017 61.9692 12.2414 62.2031 12.4757C62.6076 12.8806 63.286 12.8635 63.7116 12.4374C64.0244 12.1243 64.0336 12.0727 63.966 11.027C63.8303 8.92961 63.0163 6.61874 61.8294 4.96083C61.189 4.06624 59.704 2.60354 58.8347 2.01115C57.2529 0.933117 55.0171 0.171797 53.044 0.0392794C51.9315 -0.0355512 51.8911 -0.0286688 51.5752 0.287547ZM10.1448 4.4449C7.38737 5.04417 5.02354 7.43199 4.43489 10.2131C4.20339 11.3073 4.20251 11.8095 4.43152 12.2527C4.90104 13.1615 6.37371 12.7881 6.37371 11.7603C6.37371 10.4232 7.16412 8.66845 8.15915 7.79626C9.11744 6.95648 10.5516 6.38749 11.7233 6.38224C12.7737 6.37748 13.1623 4.91366 12.2399 4.43614C11.8109 4.21403 11.1956 4.21665 10.1448 4.4449ZM51.8128 4.3976C50.8543 4.92241 51.1937 6.37736 52.276 6.38224C53.4476 6.38749 54.8818 6.95648 55.8401 7.79626C56.8351 8.66845 57.6255 10.4232 57.6255 11.7603C57.6255 12.7881 59.0982 13.1615 59.5677 12.2527C59.7967 11.8095 59.7959 11.3073 59.5644 10.2131C58.9693 7.40209 56.6049 5.03516 53.7968 4.43952C52.7777 4.22341 52.155 4.21027 51.8128 4.3976ZM30.1871 6.45381C25.7569 6.89441 22.6935 7.71968 19.2997 9.38697C16.3312 10.8453 13.8817 12.6133 11.4989 15.0175C4.21489 22.3667 1.49079 33.1021 4.33939 43.2326C5.90157 48.7884 9.42595 54.0806 13.9875 57.7204C17.3567 60.4089 21.5955 62.4419 25.7494 63.3615C28.1177 63.8859 29.2805 64.0034 32.0621 63.9999C36.815 63.9939 40.4337 63.1566 44.6876 61.0784C49.2741 58.8379 53.1202 55.4727 55.9411 51.2324C59.1646 46.3868 60.7546 41.0791 60.7481 35.1863C60.7455 32.7519 60.5674 31.1046 60.0639 28.8573C57.461 17.2398 47.7792 8.32345 35.9998 6.69582C34.5806 6.49974 31.1583 6.35721 30.1871 6.45381ZM10.8662 8.67846C9.72596 8.98629 8.86455 9.91179 8.61979 11.0922C8.38804 12.2096 8.7353 12.7622 9.66908 12.7622C10.1458 12.7622 10.6239 12.3121 10.6239 11.8631C10.6239 11.251 11.2453 10.6349 11.8629 10.6349C12.2914 10.6349 12.7489 10.1509 12.7489 9.69756C12.7489 9.10667 12.6446 8.9002 12.2399 8.69072C11.8227 8.47474 11.6275 8.47299 10.8662 8.67846ZM34.0753 8.63729C42.6574 9.32791 50.4275 14.1621 54.9139 21.6024C56.1721 23.689 57.4775 26.9755 57.9998 29.3715C58.2521 30.5289 58.6256 33.167 58.6256 33.7913V34.1603H57.5838H56.5419L56.3986 32.8467C55.4753 24.3821 50.4873 17.1282 43.0214 13.3925C40.7406 12.2513 38.6261 11.5597 35.8748 11.0548C34.0697 10.7235 29.8049 10.7519 27.8745 11.1081C25.2546 11.5913 23.3216 12.2337 20.995 13.3943C13.5206 17.1229 8.52429 24.379 7.60063 32.8467L7.45738 34.1603H6.40071H5.34405L5.43205 33.0654C5.57668 31.2627 6.09108 28.755 6.6896 26.9344C10.2501 16.1031 20.1887 8.7877 31.7002 8.52505C32.1199 8.51554 33.1887 8.56597 34.0753 8.63729ZM51.8128 8.65218C51.4069 8.87442 51.2503 9.15185 51.2503 9.64876C51.2503 10.0048 51.3288 10.1781 51.5797 10.3755C51.7608 10.5182 52.0113 10.6349 52.1363 10.6349C52.754 10.6349 53.3754 11.251 53.3754 11.8631C53.3754 11.995 53.492 12.2512 53.6345 12.4325C54.1102 13.038 55.1919 12.7873 55.4368 12.0148C55.5706 11.593 55.2611 10.4369 54.8694 9.89565C54.4127 9.26459 53.7338 8.80923 53.0004 8.64205C52.2925 8.48062 52.1235 8.48212 51.8128 8.65218ZM33.5753 12.8924C36.5004 13.1284 38.9806 13.7758 41.4375 14.9446C43.4599 15.9066 45.296 17.09 46.4689 18.1875L46.8752 18.5675V22.5077C46.8752 26.2451 46.8618 26.4758 46.6146 26.9867C46.2925 27.6529 45.3695 28.4842 44.7654 28.6522C44.1458 28.8244 19.8534 28.8244 19.2338 28.6522C18.6298 28.4842 17.7067 27.6529 17.3846 26.9867C17.1375 26.4756 17.1241 26.2453 17.1241 22.4938V18.5397L17.7179 18.0149C18.7124 17.1359 20.9891 15.687 22.5032 14.9697C25.3431 13.624 27.8076 13.0373 31.7002 12.7796C31.8449 12.7701 32.6886 12.8208 33.5753 12.8924ZM30.9227 18.3454C29.6843 18.7851 28.8448 19.9904 28.8411 21.334C28.8385 22.334 29.1446 23.0308 29.8758 23.6889C31.1391 24.8259 32.8602 24.8259 34.1234 23.6889C34.8546 23.0308 35.1607 22.334 35.1581 21.334C35.1522 19.1345 32.9925 17.6106 30.9227 18.3454ZM20.2492 21.334V22.3976H23.4368H26.6244V21.334V20.2703H23.4368H20.2492V21.334ZM32.4346 20.3945C32.81 20.5374 33.1128 21.1518 33.0277 21.5976C32.952 21.9937 32.4329 22.3976 31.9996 22.3976C31.5664 22.3976 31.0472 21.9937 30.9716 21.5976C30.8903 21.1722 31.1837 20.5386 31.5257 20.4012C31.9066 20.2482 32.0475 20.2472 32.4346 20.3945ZM37.3748 21.334V22.3976H40.5624H43.75V21.334V20.2703H40.5624H37.3748V21.334ZM15.1584 27.1828C15.5962 28.5465 16.7851 29.8934 18.0925 30.5068L18.8117 30.8442H31.9996H45.1876L46.0264 30.4228C47.0682 29.8994 48.1416 28.8063 48.5733 27.829C48.9883 26.8896 49.1159 25.7953 49.1259 23.0859L49.1342 20.8334L49.4487 21.2088C49.6217 21.4153 50.1575 22.1695 50.6393 22.8848C52.2128 25.221 53.3384 27.9325 53.9662 30.8995C54.2637 32.3055 54.2994 32.7476 54.3058 35.0988C54.3134 37.926 54.2268 38.6666 53.6138 41.0144C52.6624 44.6581 50.8473 47.8842 48.1877 50.6579C47.0675 51.8262 45.0826 53.5562 44.8623 53.5562C44.8157 53.5562 44.7508 52.5286 44.7183 51.2725C44.6476 48.5423 44.4531 47.6797 43.4414 45.6101C41.0864 40.7918 35.9183 37.9138 30.7092 38.52C26.1603 39.0493 22.5228 41.5899 20.5578 45.6101C19.5462 47.6797 19.3517 48.5423 19.2809 51.2725C19.2484 52.5284 19.1974 53.5562 19.1677 53.5562C18.941 53.5562 17.4224 52.2519 16.1228 50.9412C12.6889 47.4783 10.7486 43.6784 9.85384 38.6651C9.74696 38.0661 9.68896 36.7762 9.69346 35.0988C9.69983 32.7476 9.73558 32.3055 10.0331 30.8995C10.7657 27.437 12.0412 24.6046 14.1697 21.7138L14.8115 20.8422L14.8898 23.7159C14.9455 25.7606 15.023 26.7607 15.1584 27.1828ZM7.55626 37.1948C8.24028 44.6877 12.1637 51.4026 18.2804 55.5492L19.2492 56.206V57.3838C19.2492 58.0316 19.2022 58.5616 19.1448 58.5616C18.9489 58.5616 16.9945 57.318 16.0033 56.5627C9.86321 51.8838 6.10933 45.0302 5.42918 37.2574L5.3443 36.2876H6.40884H7.47338L7.55626 37.1948ZM58.5701 37.2574C57.8059 45.9899 53.1134 53.6022 45.7267 58.0923C45.3021 58.3505 44.9087 58.5616 44.8525 58.5616C44.7961 58.5616 44.7501 58.0365 44.7501 57.3949V56.2282L45.651 55.612C48.6445 53.5646 51.2799 50.7608 53.0812 47.7075C54.9596 44.5238 56.0912 40.9835 56.4419 37.1948L56.5259 36.2876H57.5904H58.6549L58.5701 37.2574ZM33.3344 40.6761C34.5765 40.846 36.1924 41.3859 37.3023 42.0017C38.422 42.623 40.1333 44.2408 40.8823 45.3861C42.2594 47.4915 42.625 48.9911 42.625 52.5337V55.0256L41.3427 55.5986C35.2196 58.3346 28.8841 58.3403 22.718 55.6156L21.3742 55.0218V52.5318C21.3742 49.7393 21.5243 48.7061 22.1485 47.2006C23.3768 44.2381 25.8745 41.9763 28.937 41.0531C30.5329 40.5718 31.7876 40.4643 33.3344 40.6761ZM30.9371 42.8031C30.5053 42.8673 29.7602 43.1253 29.1809 43.4112C26.9948 44.4904 25.6244 46.6878 25.6244 49.1139C25.6244 51.5406 26.9957 53.739 29.1809 54.8154C31.6394 56.0265 34.3337 55.6379 36.308 53.7878C37.6614 52.5193 38.3748 50.9061 38.3748 49.1139C38.3748 47.4139 37.7733 45.9577 36.5313 44.6513C35.1404 43.1883 33.0317 42.4915 30.9371 42.8031ZM32.6915 44.9333C34.0878 45.1917 35.2354 46.0473 35.841 47.2817C36.1418 47.8948 36.1871 48.1358 36.1866 49.1139C36.1859 50.4627 35.942 51.1 35.0691 52.0343C33.411 53.8087 30.5882 53.8087 28.9301 52.0343C28.0569 51.0997 27.8132 50.4627 27.8132 49.1139C27.8132 47.8109 28.0446 47.1652 28.8188 46.3074C29.5582 45.488 30.5434 45.0056 31.8829 44.8073C31.9219 44.8015 32.2858 44.8582 32.6915 44.9333ZM22.9629 58.0443C24.45 58.6399 26.5417 59.2168 28.312 59.5193C30.0344 59.8137 33.9608 59.814 35.6873 59.52C37.8625 59.1496 40.5222 58.3766 41.7192 57.7671C42.649 57.2935 42.6388 57.2841 42.5986 58.5798L42.5625 59.7442L41.3528 60.2164C37.9213 61.5557 33.4268 62.1778 29.7495 61.8226C27.0321 61.56 24.0187 60.8309 21.9055 59.9245L21.3742 59.6967V58.5527C21.3742 57.6876 21.4124 57.4237 21.5305 57.4708C21.6165 57.5051 22.261 57.7631 22.9629 58.0443Z" fill="#99E699"/>
</svg>
