<svg width="55" height="55" viewBox="0 0 55 55" fill="none" xmlns="http://www.w3.org/2000/svg">
<path fill-rule="evenodd" clip-rule="evenodd" d="M25.777 0.029625C21.5408 0.450503 18.6116 1.23883 15.3663 2.83149C12.5278 4.22454 10.1856 5.91343 7.90707 8.21003C0.941982 15.2302 -1.66284 25.4852 1.06104 35.1621C2.55482 40.4693 5.92488 45.5246 10.2867 49.0015C13.5084 51.5697 17.5616 53.5116 21.5336 54.3901C23.7983 54.891 24.9101 55.0033 27.57 54.9999C32.1148 54.9942 35.575 54.1944 39.6426 52.2092C44.0283 50.0689 47.7061 46.8544 50.4034 42.8039C53.4858 38.1752 55.0062 33.1051 55 27.476C54.9975 25.1506 54.8271 23.577 54.3457 21.4303C51.8568 10.3328 42.5989 1.81558 31.3352 0.260803C29.9781 0.0734936 26.7057 -0.062655 25.777 0.029625ZM29.495 2.11537C37.7013 2.77507 45.1312 7.3929 49.4212 14.5001C50.6243 16.4934 51.8726 19.6328 52.372 21.9215C52.6132 23.0271 52.9703 25.5471 52.9703 26.1434V26.4959H51.9742H50.9779L50.8409 25.2412C49.958 17.1555 45.1884 10.2262 38.0494 6.65777C35.8684 5.56762 33.8465 4.90696 31.2157 4.42464C29.4896 4.10823 25.4116 4.13537 23.5657 4.47556C21.0605 4.9372 19.2121 5.55077 16.9874 6.65944C9.84025 10.2212 5.0627 17.1525 4.17949 25.2412L4.0425 26.4959H3.0321H2.02171L2.10586 25.45C2.24416 23.728 2.73603 21.3326 3.30834 19.5935C6.71295 9.24699 16.2164 2.25905 27.2239 2.00815C27.6252 1.99906 28.6472 2.04723 29.495 2.11537ZM29.0169 6.17999C31.8139 6.40543 34.1855 7.0239 36.5348 8.14034C38.4687 9.05932 40.2244 10.1897 41.3459 11.2381L41.7344 11.6011V15.365C41.7344 18.9351 41.7216 19.1554 41.4853 19.6434C41.1773 20.2798 40.2946 21.0739 39.7171 21.2344C39.1246 21.3989 15.8958 21.3989 15.3033 21.2344C14.7257 21.0739 13.8431 20.2798 13.5351 19.6434C13.2988 19.1553 13.286 18.9352 13.286 15.3517V11.5745L13.8537 11.0732C14.8047 10.2336 16.9818 8.84954 18.4295 8.16437C21.1452 6.8789 23.5017 6.31841 27.2239 6.07229C27.3622 6.06321 28.169 6.11162 29.0169 6.17999ZM26.4804 11.3889C25.2962 11.809 24.4935 12.9603 24.49 14.2437C24.4875 15.199 24.7802 15.8646 25.4794 16.4932C26.6873 17.5793 28.333 17.5793 29.541 16.4932C30.2402 15.8646 30.5329 15.199 30.5304 14.2437C30.5248 12.1427 28.4596 10.687 26.4804 11.3889ZM16.2743 14.2437V15.2598H19.3223H22.3703V14.2437V13.2277H19.3223H16.2743V14.2437ZM27.9262 13.3463C28.2851 13.4828 28.5746 14.0697 28.4932 14.4956C28.4209 14.8739 27.9245 15.2598 27.5102 15.2598C27.0959 15.2598 26.5995 14.8739 26.5272 14.4956C26.4495 14.0892 26.73 13.484 27.057 13.3527C27.4213 13.2065 27.556 13.2056 27.9262 13.3463ZM32.65 14.2437V15.2598H35.6981H38.7461V14.2437V13.2277H35.6981H32.65V14.2437ZM11.4063 19.8307C11.8249 21.1334 12.9618 22.4201 14.212 23.006L14.8996 23.3283H27.5102H40.1207L40.9228 22.9257C41.919 22.4258 42.9454 21.3816 43.3582 20.448C43.7551 19.5507 43.877 18.5053 43.8866 15.9172L43.8946 13.7656L44.1953 14.1242C44.3607 14.3214 44.8731 15.0419 45.3337 15.7251C46.8384 17.9568 47.9146 20.5469 48.5149 23.3811C48.7994 24.7242 48.8336 25.1465 48.8397 27.3924C48.847 30.0931 48.7642 30.8006 48.178 33.0433C47.2682 36.5238 45.5326 39.6055 42.9895 42.2551C41.9184 43.3711 40.0203 45.0236 39.8097 45.0236C39.7651 45.0236 39.7031 44.042 39.672 42.8422C39.6044 40.2342 39.4184 39.4102 38.451 37.4333C36.1992 32.8306 31.2573 30.0815 26.2763 30.6605C21.9265 31.1661 18.4483 33.593 16.5694 37.4333C15.602 39.4102 15.416 40.2342 15.3484 42.8422C15.3173 44.0419 15.2685 45.0236 15.2401 45.0236C15.0234 45.0236 13.5712 43.7777 12.3285 42.5258C9.045 39.2178 7.18964 35.588 6.33404 30.7991C6.23184 30.2269 6.17637 28.9948 6.18068 27.3924C6.18677 25.1465 6.22096 24.7242 6.50544 23.3811C7.20602 20.0736 8.42559 17.368 10.461 14.6065L11.0746 13.774L11.1495 16.5191C11.2028 18.4722 11.2769 19.4275 11.4063 19.8307ZM4.13705 29.3946C4.79113 36.5522 8.54273 42.9665 14.3916 46.9275L15.318 47.5549V48.6799C15.318 49.2988 15.2731 49.805 15.2182 49.805C15.0309 49.805 13.162 48.6171 12.2143 47.8956C6.343 43.4261 2.75348 36.8793 2.10311 29.4544L2.02195 28.528H3.03987H4.0578L4.13705 29.3946ZM52.9173 29.4544C52.1866 37.796 47.6995 45.0676 40.6363 49.3567C40.2302 49.6033 39.8541 49.805 39.8003 49.805C39.7464 49.805 39.7024 49.3034 39.7024 48.6906V47.5761L40.5638 46.9875C43.4262 45.0317 45.9463 42.3534 47.6688 39.4368C49.4648 36.3956 50.547 33.0137 50.8822 29.3946L50.9626 28.528H51.9805H52.9984L52.9173 29.4544ZM28.7865 32.7201C29.9742 32.8824 31.5194 33.3982 32.5807 33.9864C33.6513 34.5799 35.2877 36.1252 36.004 37.2193C37.3207 39.2304 37.6703 40.6629 37.6703 44.0469V46.4273L36.4442 46.9747C30.5892 49.5882 24.5311 49.5937 18.635 46.9909L17.35 46.4236V44.0451C17.35 41.3776 17.4935 40.3906 18.0904 38.9525C19.2649 36.1227 21.6533 33.9621 24.5817 33.0802C26.1077 32.6205 27.3075 32.5178 28.7865 32.7201ZM26.4942 34.7519C26.0813 34.8132 25.3688 35.0597 24.8149 35.3328C22.7245 36.3637 21.4141 38.4627 21.4141 40.7802C21.4141 43.0983 22.7254 45.1983 24.8149 46.2265C27.1657 47.3834 29.7421 47.0122 31.63 45.2449C32.9241 44.0332 33.6063 42.4922 33.6063 40.7802C33.6063 39.1563 33.0311 37.7653 31.8434 36.5174C30.5134 35.1198 28.497 34.4542 26.4942 34.7519ZM28.1718 36.7867C29.507 37.0335 30.6043 37.8509 31.1834 39.03C31.471 39.6157 31.5144 39.8459 31.5139 40.7802C31.5132 42.0687 31.28 42.6774 30.4453 43.5699C28.8598 45.2649 26.1606 45.2649 24.5751 43.5699C23.7401 42.6771 23.5071 42.0687 23.5071 40.7802C23.5071 39.5355 23.7283 38.9187 24.4686 38.0993C25.1756 37.3166 26.1178 36.8558 27.3985 36.6663C27.4358 36.6608 27.7838 36.715 28.1718 36.7867ZM18.8692 49.3108C20.2911 49.8798 22.2912 50.4309 23.984 50.7199C25.631 51.001 29.3855 51.0014 31.0364 50.7205C33.1163 50.3667 35.6596 49.6283 36.8042 49.0461C37.6933 48.5936 37.6835 48.5847 37.6451 49.8224L37.6106 50.9347L36.4539 51.3857C33.1726 52.6651 28.8749 53.2594 25.3586 52.92C22.7601 52.6693 19.8787 51.9727 17.858 51.107L17.35 50.8893V49.7965C17.35 48.9702 17.3865 48.7181 17.4994 48.763C17.5817 48.7958 18.198 49.0423 18.8692 49.3108Z" fill="#FF5F5F"/>
<path d="M50.103 4.50317L4.92017 49.6869" stroke="#FF5F5F" stroke-width="5" stroke-linecap="round" stroke-linejoin="round"/>
<path d="M4.92017 4.50317L50.103 49.6869" stroke="#FF5F5F" stroke-width="5" stroke-linecap="round" stroke-linejoin="round"/>
</svg>
