<svg width="80" height="35" viewBox="0 0 80 35" fill="none" xmlns="http://www.w3.org/2000/svg">
<path fill-rule="evenodd" clip-rule="evenodd" d="M29.2126 0.521058C27.7795 1.22085 27.1519 2.43736 27.1519 4.5162V5.64179H15.5991C2.7601 5.64179 3.34649 5.59732 1.87794 6.68412C1.30814 7.10593 0.946639 7.5492 0.547733 8.31539V8.31539C0.187888 9.00651 0 9.77422 0 10.5534V17.816V25.262C0 25.9207 0.157935 26.5699 0.460565 27.1551V27.1551C1.3119 28.8012 2.90737 29.8095 4.92334 29.9751L16.5104 30.0656L16.6827 30.6924C17.1278 32.3121 18.2494 33.6509 19.7966 34.4094C20.8184 34.9103 22.7657 35.0803 24.1089 34.7858C25.9633 34.3792 27.7799 32.6326 28.2608 30.7939L28.463 30.0211H32.9403C33.5966 30.0211 34.1286 29.4891 34.1286 28.8328V28.8328C34.1286 28.1765 33.5966 27.6445 32.9403 27.6445H4.9957C4.4778 27.6445 3.97099 27.4945 3.53648 27.2127V27.2127C2.29954 26.4107 2.27653 26.2808 2.27262 20.093C2.27074 17.1205 2.3083 14.6882 2.35603 14.6882C2.40377 14.6882 2.84399 14.953 3.33413 15.2767C5.36825 16.6198 6.74478 17.2351 8.92022 17.7733C9.92868 18.0228 10.8928 18.0999 13.8783 18.1702L17.5843 18.2574L17.6342 20.5869C17.6824 22.8448 17.6969 22.933 18.1055 23.4572C18.9816 24.5813 17.303 24.5013 39.9845 24.5013C62.666 24.5013 60.9874 24.5813 61.8635 23.4572C62.2721 22.933 62.2866 22.8448 62.3348 20.5869L62.3848 18.2574L66.0907 18.1735C69.3688 18.0995 69.9707 18.0455 71.3022 17.7062C73.1369 17.2387 74.7562 16.5216 76.3371 15.4763C76.9928 15.0429 77.5676 14.6882 77.6145 14.6882C77.6615 14.6882 77.6983 17.1205 77.6964 20.093C77.6925 26.2809 77.6695 26.4107 76.4325 27.2127V27.2127C75.9979 27.4945 75.491 27.6445 74.973 27.6445H39.2166C38.5603 27.6445 38.0283 28.1765 38.0283 28.8328V28.8328C38.0283 29.4891 38.5603 30.0211 39.2166 30.0211H48.0874L48.1845 30.5194C48.4834 32.0541 49.7972 33.6616 51.3712 34.4189C52.9453 35.1762 55.1204 35.1805 56.6135 34.5067C58.1066 33.833 59.4001 32.3054 59.8434 30.6924L60.0157 30.0656L75.0696 29.9731C77.1174 29.8049 78.7031 28.7575 79.608 26.9754V26.9754C79.8455 26.5077 79.9728 25.994 79.9782 25.4695C79.9945 23.8984 80.022 20.332 79.969 17.8314C79.8921 14.1972 80.0595 9.5874 79.5546 8.53234C79.0498 7.47729 78.1685 6.58583 77.1401 6.08997C76.3926 5.72949 76.2463 5.71707 72.243 5.67291C68.536 5.63197 68.0865 5.6539 67.822 5.88834C67.4089 6.25464 67.4281 7.19256 67.8568 7.57297C68.1561 7.83869 68.5334 7.87196 72.043 7.94172C76.3394 8.02713 76.4875 8.06101 77.2336 9.12787C77.5199 9.53711 77.6286 9.92749 77.6735 10.7069L77.7333 11.7424L76.1125 12.8501C74.1616 14.1833 72.4213 15.032 70.7358 15.4719C69.6494 15.7554 69.0184 15.8012 65.9627 15.8184L62.4416 15.8382L62.3633 14.3049C62.27 12.4764 61.9949 11.897 60.9674 11.3646V11.3646C60.5155 11.1305 60.0139 11.0083 59.505 11.0083H39.9845H20.4641C19.9551 11.0083 19.4536 11.1305 19.0016 11.3646V11.3646C17.9741 11.897 17.699 12.4764 17.6057 14.3049L17.5275 15.8382L14.0063 15.8184C10.9464 15.8012 10.3212 15.7557 9.23321 15.4709C7.49972 15.0172 5.99142 14.2834 3.96543 12.9077L2.23616 11.7337L2.29563 10.7026C2.36261 9.54217 2.76871 8.78994 3.59219 8.30128C4.04994 8.02973 5.25558 8.01532 33.8256 7.94172C62.8096 7.86705 63.591 7.85754 63.9118 7.57297C64.3361 7.1967 64.3603 6.25495 63.955 5.89555C63.7004 5.66969 63.0722 5.64179 58.243 5.64179H52.8171V4.5162C52.8171 2.432 52.1443 1.13882 50.7227 0.490238C49.3011 -0.158343 30.6458 -0.178735 29.2126 0.521058ZM50.4393 4.65159C50.4988 3.51849 50.4033 3.12949 49.9687 2.73283C49.6343 2.4274 49.4558 2.42188 39.9845 2.42188C30.5133 2.42188 30.3347 2.4274 30.0003 2.73283C29.5657 3.12949 29.4702 3.51849 29.5297 4.65159L29.5776 5.56512H39.9845H50.3914L50.4393 4.65159ZM60.0207 22.2013L59.9791 17.7931L59.9376 13.3849L40.0502 13.346C29.1123 13.3246 20.1157 13.3533 20.058 13.4099C20.0004 13.4665 19.9531 15.4676 19.9531 17.8571V22.2013H39.9869H60.0207ZM25.1388 31.6068C25.5101 31.2146 26.0564 30.3207 26.0564 30.1054C26.0564 30.059 24.4358 30.0211 22.455 30.0211H18.8534L19.0987 30.5961C19.6667 31.9288 20.8251 32.619 22.5024 32.6243C23.6898 32.6282 24.4494 32.335 25.1388 31.6068ZM54.0221 32.6243C55.7012 32.619 56.8591 31.9293 57.4275 30.5961L57.6727 30.0211H54.0711C52.0903 30.0211 50.4697 30.0584 50.4697 30.1039C50.4697 30.3532 51.1282 31.3801 51.5116 31.7286C52.2615 32.4101 52.8722 32.628 54.0221 32.6243Z" fill="black"/>
<path d="M29.835 17.8314C29.835 18.4666 30.3499 18.9814 30.985 18.9814H39.9845H48.984C49.6191 18.9814 50.134 18.4666 50.134 17.8314V17.8314C50.134 17.1963 49.6191 16.6815 48.984 16.6815H39.9845H30.985C30.3499 16.6815 29.835 17.1963 29.835 17.8314V17.8314Z" fill="black"/>
</svg>
