<svg width="93" height="42" viewBox="0 0 93 42" fill="none" xmlns="http://www.w3.org/2000/svg">
<g clip-path="url(#clip0_231_67)">
<path d="M42.6597 24.4696C42.6597 25.1181 43.1854 25.6438 43.8339 25.6438H52.8447H61.8554C62.5039 25.6438 63.0296 25.1181 63.0296 24.4696V24.4696C63.0296 23.8211 62.5039 23.2954 61.8554 23.2954H52.8447H43.8339C43.1854 23.2954 42.6597 23.8211 42.6597 24.4696V24.4696Z" fill="black"/>
<path fill-rule="evenodd" clip-rule="evenodd" d="M12.7205 32.0604C12.7205 32.731 12.8788 33.392 13.1826 33.9897V33.9897C14.0369 35.6706 15.638 36.7001 17.661 36.8692L29.2885 36.9616L29.4614 37.6016C29.9081 39.2555 31.0336 40.6224 32.5863 41.3969C33.6116 41.9084 35.5657 42.0821 36.9135 41.7813C38.7745 41.3661 40.5974 39.5827 41.08 37.7052L41.2829 36.9162H45.755C46.4251 36.9162 46.9683 36.3729 46.9683 35.7028V35.7028C46.9683 35.0327 46.4251 34.4895 45.755 34.4895H17.7378C17.2157 34.4895 16.7051 34.3362 16.2693 34.0486V34.0486C15.3109 33.4163 15.0787 33.3497 15.0209 30.3727H12.7205V32.0604ZM37.947 38.5353C38.3197 38.1349 38.8679 37.2221 38.8679 37.0023C38.8679 36.9548 37.2416 36.9162 35.2539 36.9162H31.6398L31.8859 37.5033C32.4559 38.8641 33.6183 39.5688 35.3015 39.5743C36.493 39.5782 37.2553 39.2788 37.947 38.5353Z" fill="black"/>
<path fill-rule="evenodd" clip-rule="evenodd" d="M42.0352 6.79437C40.597 7.50891 39.9672 8.75107 39.9672 10.8737V12.023H28.3741C15.4902 12.023 16.0786 11.9776 14.605 13.0873C14.0332 13.518 13.6704 13.9706 13.2701 14.753V14.753C12.9088 15.459 12.7205 16.2407 12.7205 17.0338V20.5398V23.7892C12.7205 24.4421 13.2497 24.9713 13.9026 24.9713V24.9713C14.5555 24.9713 15.0847 24.4421 15.0847 23.7892V21.2601C15.1326 21.2601 15.5744 21.5305 16.0662 21.861C18.1075 23.2325 19.4888 23.8607 21.6718 24.4103C22.6838 24.665 23.6514 24.7437 26.6472 24.8155L30.3662 24.9045L30.4163 27.2832C30.4646 29.5887 30.4792 29.6787 30.8893 30.214C31.7684 31.3617 30.084 31.28 52.8447 31.28C75.6054 31.28 73.9209 31.3617 74.8001 30.214C75.2101 29.6787 75.2247 29.5887 75.2731 27.2832L75.3232 24.9045L79.0421 24.8189C82.3316 24.7433 82.9356 24.6882 84.2717 24.3417C86.1129 23.8643 87.7378 23.1321 89.3242 22.0648C89.9822 21.6222 90.5591 21.2601 90.6062 21.2601C90.6533 21.2601 90.6902 23.7436 90.6883 26.7789C90.6844 33.0972 90.6613 33.2296 89.42 34.0486V34.0486C88.9842 34.3362 88.4735 34.4895 87.9513 34.4895H52.095C51.4249 34.4895 50.8816 35.0327 50.8816 35.7028V35.7028C50.8816 36.3729 51.4249 36.9162 52.095 36.9162H60.9758L61.0733 37.425C61.3733 38.992 62.6917 40.6334 64.2712 41.4067C65.8507 42.1799 68.0334 42.1843 69.5318 41.4964C71.0301 40.8084 72.3281 39.2486 72.773 37.6016L72.9459 36.9616L88.0524 36.8672C90.1072 36.6954 91.6986 35.626 92.6066 33.8063V33.8063C92.845 33.3285 92.9726 32.8054 92.9781 32.2715C92.9944 30.6689 93.022 27.0245 92.9689 24.4696C92.8917 20.7588 93.0596 16.0518 92.553 14.9745C92.0464 13.8972 91.1621 12.987 90.13 12.4807C89.38 12.1126 89.2332 12.0999 85.2159 12.0548C81.4959 12.013 81.0448 12.0354 80.7794 12.2748C80.3648 12.6488 80.3842 13.6065 80.8143 13.9949C81.1147 14.2662 81.4933 14.3002 85.0152 14.3714C89.3266 14.4586 89.4752 14.4932 90.2239 15.5826C90.5112 16.0005 90.6203 16.3991 90.6654 17.1949L90.7254 18.2523L89.0989 19.3833C87.1412 20.7446 85.3947 21.6111 83.7034 22.0603C82.6132 22.3498 81.98 22.3966 78.9136 22.4141L75.3802 22.4343L75.3017 20.8687C75.2081 19.0017 74.932 18.4101 73.9008 17.8665V17.8665C73.4475 17.6275 72.9428 17.5027 72.4304 17.5027H52.8447H33.2589C32.7465 17.5027 32.2418 17.6275 31.7885 17.8665V17.8665C30.7573 18.4101 30.4813 19.0017 30.3877 20.8687L30.3092 22.4343L26.7757 22.4141C23.7051 22.3966 23.0777 22.3501 21.9859 22.0594C20.2464 21.5961 18.7328 20.8468 16.6997 19.4421L14.9644 18.2433L15.0241 17.1905C15.0913 16.0056 15.4988 15.2375 16.3252 14.7386C16.7845 14.4613 17.9944 14.4466 46.6643 14.3714C75.7495 14.2952 76.5336 14.2855 76.8556 13.9949C77.2813 13.6107 77.3057 12.6491 76.8989 12.2821C76.6434 12.0515 76.0131 12.023 71.1669 12.023H65.7221V10.8737C65.7221 8.74559 65.047 7.42515 63.6204 6.7629C62.1938 6.10065 43.4733 6.07983 42.0352 6.79437ZM63.336 11.012C63.3957 9.85498 63.2999 9.45778 62.8638 9.05276C62.5282 8.74089 62.349 8.73525 52.8447 8.73525C43.3403 8.73525 43.1611 8.74089 42.8255 9.05276C42.3894 9.45778 42.2936 9.85498 42.3533 11.012L42.4014 11.9447H52.8447H63.2879L63.336 11.012ZM72.9509 28.9316L72.9091 24.4305L72.8675 19.9293L52.9106 19.8896C41.9345 19.8678 32.9065 19.8971 32.8485 19.9549C32.7907 20.0126 32.7433 22.0559 32.7433 24.4958V28.9316H52.847H72.9509ZM66.9313 39.5743C68.6162 39.5688 69.7782 38.8646 70.3486 37.5033L70.5946 36.9162H66.9805C64.9928 36.9162 63.3665 36.9542 63.3665 37.0007C63.3665 37.2553 64.0273 38.3038 64.4121 38.6596C65.1646 39.3556 65.7774 39.578 66.9313 39.5743Z" fill="black"/>
<path fill-rule="evenodd" clip-rule="evenodd" d="M52.8447 25.6438H43.8339C43.1854 25.6438 42.6597 25.1181 42.6597 24.4696V24.4696C42.6597 23.8211 43.1854 23.2954 43.8339 23.2954H52.8447H61.8554C62.5039 23.2954 63.0296 23.8211 63.0296 24.4696V24.4696C63.0296 25.1181 62.5039 25.6438 61.8554 25.6438H52.8447Z" fill="black"/>
</g>
<defs>
<clipPath id="clip0_231_67">
<rect width="93" height="42" fill="white"/>
</clipPath>
</defs>
</svg>
